# Blender 4.2.2 LTS
# www.blender.org
mtllib stair_fence.mtl
o Cube
v 0.251358 2.173343 -0.197730
v 0.251358 -2.173343 -0.197730
v 0.251358 2.173343 0.197730
v 0.251358 -2.173343 0.197730
v -0.251358 2.173343 -0.197730
v -0.251358 -2.173343 -0.197730
v -0.251358 2.173343 0.197730
v -0.251358 -2.173343 0.197730
vn -0.0000 1.0000 -0.0000
vn -0.0000 -0.0000 1.0000
vn -1.0000 -0.0000 -0.0000
vn -0.0000 -1.0000 -0.0000
vn 1.0000 -0.0000 -0.0000
vn -0.0000 -0.0000 -1.0000
vt 0.625000 0.500000
vt 0.875000 0.500000
vt 0.875000 0.750000
vt 0.625000 0.750000
vt 0.375000 0.750000
vt 0.625000 1.000000
vt 0.375000 1.000000
vt 0.375000 0.000000
vt 0.625000 0.000000
vt 0.625000 0.250000
vt 0.375000 0.250000
vt 0.125000 0.500000
vt 0.375000 0.500000
vt 0.125000 0.750000
s 0
usemtl Material
f 1/1/1 5/2/1 7/3/1 3/4/1
f 4/5/2 3/4/2 7/6/2 8/7/2
f 8/8/3 7/9/3 5/10/3 6/11/3
f 6/12/4 2/13/4 4/5/4 8/14/4
f 2/13/5 1/1/5 3/4/5 4/5/5
f 6/11/6 5/10/6 1/1/6 2/13/6
o Cube.001
v -2.148099 2.288408 0.511577
v -2.148099 2.637143 0.511577
v -2.148099 2.288408 -0.511577
v -2.148099 2.637143 -0.511577
v 2.148099 2.345112 0.511577
v 2.148099 2.693847 0.511577
v 2.148099 2.345112 -0.511577
v 2.148099 2.693847 -0.511577
v 1.500260 2.095613 -0.511577
v 1.500260 2.444349 -0.511577
v 1.500260 2.095613 0.511577
v 1.500260 2.444349 0.511577
v -1.509636 2.095613 -0.511577
v -1.509636 2.444349 0.511577
v -1.509636 2.444349 -0.511577
v -1.509636 2.095613 0.511577
vn -1.0000 -0.0000 -0.0000
vn -0.0000 -0.0000 -1.0000
vn 1.0000 -0.0000 -0.0000
vn -0.0000 -0.0000 1.0000
vn 0.3594 -0.9332 -0.0000
vn 0.2891 0.9573 -0.0000
vn -0.3594 0.9332 -0.0000
vn -0.0000 -1.0000 -0.0000
vn -0.2891 -0.9573 -0.0000
vn -0.0000 1.0000 -0.0000
vt 0.375000 0.000000
vt 0.625000 0.000000
vt 0.625000 0.250000
vt 0.375000 0.250000
vt 0.375000 0.462302
vt 0.625000 0.462302
vt 0.625000 0.500000
vt 0.375000 0.500000
vt 0.625000 0.750000
vt 0.375000 0.750000
vt 0.375000 0.962847
vt 0.625000 0.962847
vt 0.625000 1.000000
vt 0.375000 1.000000
vt 0.337302 0.500000
vt 0.337302 0.750000
vt 0.837847 0.500000
vt 0.875000 0.500000
vt 0.875000 0.750000
vt 0.837847 0.750000
vt 0.662698 0.500000
vt 0.662698 0.750000
vt 0.162153 0.500000
vt 0.162153 0.750000
vt 0.625000 0.787698
vt 0.375000 0.787698
vt 0.375000 0.287153
vt 0.625000 0.287153
vt 0.125000 0.500000
vt 0.125000 0.750000
s 0
f 9/15/7 10/16/7 12/17/7 11/18/7
f 17/19/8 18/20/8 16/21/8 15/22/8
f 15/22/9 16/21/9 14/23/9 13/24/9
f 24/25/10 22/26/10 10/27/10 9/28/10
f 17/29/11 15/22/11 13/24/11 19/30/11
f 23/31/12 12/32/12 10/33/12 22/34/12
f 16/21/13 18/35/13 20/36/13 14/23/13
f 21/37/14 17/29/14 19/30/14 24/38/14
f 13/24/10 14/23/10 20/39/10 19/40/10
f 21/41/8 23/42/8 18/20/8 17/19/8
f 11/18/8 12/17/8 23/42/8 21/41/8
f 11/43/15 21/37/15 24/38/15 9/44/15
f 18/35/16 23/31/16 22/34/16 20/36/16
f 19/40/10 20/39/10 22/26/10 24/25/10
