# Blender 4.2.2 LTS
# www.blender.org
mtllib Ligth_cone.mtl
o Cilindro
v -0.000000 0.983669 4.075100
v 0.000000 -3.997797 0.048203
v 1.234221 0.983669 3.875648
v 0.012032 -3.997797 0.045844
v 2.347628 0.983669 3.296824
v 0.022886 -3.997797 0.038997
v 3.231233 0.983669 2.395283
v 0.031500 -3.997797 0.028333
v 3.798540 0.983669 1.259274
v 0.037030 -3.997797 0.014896
v 3.994022 0.983669 -0.000000
v 0.038936 -3.997797 0.000000
v 3.798540 0.983669 -1.259275
v 0.037030 -3.997797 -0.014895
v 3.231233 0.983669 -2.395283
v 0.031500 -3.997797 -0.028333
v 2.347628 0.983669 -3.296824
v 0.022886 -3.997797 -0.038997
v 1.234221 0.983669 -3.875648
v 0.012032 -3.997797 -0.045844
v -0.000000 0.983669 -4.075098
v 0.000000 -3.997797 -0.048203
v -1.234221 0.983669 -3.875648
v -0.012032 -3.997797 -0.045844
v -2.347628 0.983669 -3.296824
v -0.022886 -3.997797 -0.038997
v -3.231233 0.983669 -2.395283
v -0.031500 -3.997797 -0.028333
v -3.798540 0.983669 -1.259275
v -0.037030 -3.997797 -0.014895
v -3.994022 0.983669 -0.000000
v -0.038936 -3.997797 0.000000
v -3.798540 0.983669 1.259274
v -0.037030 -3.997797 0.014896
v -3.231233 0.983669 2.395283
v -0.031500 -3.997797 0.028333
v -2.347628 0.983669 3.296824
v -0.022886 -3.997797 0.038997
v -1.234221 0.983669 3.875648
v -0.012032 -3.997797 0.045844
v 0.617110 0.983669 3.975374
v -0.000000 -1.507064 2.061651
v 0.006016 -3.997797 0.047024
v 0.623126 -1.507064 1.960746
v 1.790924 0.983669 3.586236
v 0.017459 -3.997797 0.042421
v 1.185257 -1.507064 1.667911
v 2.789430 0.983669 2.846054
v 0.027193 -3.997797 0.033665
v 1.631366 -1.507064 1.211808
v 3.514887 0.983669 1.827279
v 0.034265 -3.997797 0.021614
v 1.917785 -1.507064 0.637085
v 3.896281 0.983669 0.629637
v 0.037983 -3.997797 0.007448
v 2.016479 -1.507064 0.000000
v 3.896281 0.983669 -0.629638
v 0.037983 -3.997797 -0.007448
v 1.917785 -1.507064 -0.637085
v 3.514887 0.983669 -1.827279
v 0.034265 -3.997797 -0.021614
v 1.631366 -1.507064 -1.211808
v 2.789430 0.983669 -2.846054
v 0.027193 -3.997797 -0.033665
v 1.185257 -1.507064 -1.667911
v 1.790924 0.983669 -3.586236
v 0.017459 -3.997797 -0.042420
v 0.623126 -1.507064 -1.960746
v 0.617110 0.983669 -3.975373
v 0.006016 -3.997797 -0.047023
v -0.000000 -1.507064 -2.061650
v -0.617110 0.983669 -3.975373
v -0.006016 -3.997797 -0.047023
v -0.623126 -1.507064 -1.960746
v -1.790924 0.983669 -3.586236
v -0.017459 -3.997797 -0.042420
v -1.185257 -1.507064 -1.667911
v -2.789430 0.983669 -2.846054
v -0.027193 -3.997797 -0.033665
v -1.631366 -1.507064 -1.211808
v -3.514887 0.983669 -1.827279
v -0.034265 -3.997797 -0.021614
v -1.917785 -1.507064 -0.637085
v -3.896281 0.983669 -0.629637
v -0.037983 -3.997797 -0.007448
v -2.016479 -1.507064 0.000000
v -3.896281 0.983669 0.629637
v -0.037983 -3.997797 0.007448
v -1.917785 -1.507064 0.637085
v -3.514887 0.983669 1.827279
v -0.034265 -3.997797 0.021614
v -1.631366 -1.507064 1.211808
v -2.789430 0.983669 2.846054
v -0.027193 -3.997797 0.033665
v -1.185257 -1.507064 1.667911
v -0.006016 -3.997797 0.047024
v -0.017459 -3.997797 0.042421
v -1.790924 0.983669 3.586236
v -0.623126 -1.507064 1.960746
v -0.617110 0.983669 3.975374
v -0.311563 -1.507064 2.011199
v -0.904192 -1.507064 1.814328
v -1.408312 -1.507064 1.439860
v -1.774576 -1.507064 0.924447
v -1.967132 -1.507064 0.318543
v -1.967132 -1.507064 -0.318543
v -1.774576 -1.507064 -0.924447
v -1.408312 -1.507064 -1.439859
v -0.904192 -1.507064 -1.814328
v -0.311563 -1.507064 -2.011198
v 0.311563 -1.507064 -2.011198
v 0.904192 -1.507064 -1.814328
v 1.408312 -1.507064 -1.439859
v 1.774576 -1.507064 -0.924447
v 1.967132 -1.507064 -0.318543
v 1.967132 -1.507064 0.318543
v 1.774576 -1.507064 0.924447
v 1.408312 -1.507064 1.439860
v 0.904192 -1.507064 1.814328
v 0.311563 -1.507064 2.011199
vn 0.1254 -0.6238 0.7714
vn 0.3627 -0.6226 0.6934
vn 0.5617 -0.6206 0.5472
vn 0.7038 -0.6186 0.3494
vn 0.7775 -0.6173 0.1200
vn 0.7776 -0.6172 -0.1200
vn 0.7039 -0.6184 -0.3494
vn 0.5618 -0.6203 -0.5473
vn 0.3628 -0.6224 -0.6936
vn 0.1254 -0.6237 -0.7715
vn -0.1254 -0.6238 -0.7714
vn -0.3627 -0.6226 -0.6934
vn -0.5617 -0.6206 -0.5472
vn -0.7038 -0.6186 -0.3494
vn -0.7775 -0.6173 -0.1200
vn -0.7776 -0.6172 0.1200
vn -0.7039 -0.6184 0.3494
vn -0.5618 -0.6203 0.5473
vn -0.0000 -1.0000 -0.0000
vn -0.3628 -0.6224 0.6936
vn -0.1254 -0.6237 0.7715
vn -0.0000 1.0000 -0.0000
vn -0.1248 -0.6238 0.7716
vn -0.1254 -0.6238 0.7714
vn -0.3612 -0.6225 0.6943
vn -0.3627 -0.6226 0.6934
vn -0.5603 -0.6204 0.5488
vn -0.5602 -0.6205 0.5487
vn -0.5617 -0.6206 0.5472
vn -0.7031 -0.6184 0.3509
vn -0.7031 -0.6185 0.3509
vn -0.7038 -0.6186 0.3494
vn -0.7775 -0.6172 0.1206
vn -0.7775 -0.6173 0.1206
vn -0.7775 -0.6173 0.1200
vn -0.7775 -0.6173 -0.1206
vn -0.7775 -0.6172 -0.1206
vn -0.7776 -0.6172 -0.1200
vn -0.7031 -0.6185 -0.3509
vn -0.7031 -0.6184 -0.3509
vn -0.7039 -0.6184 -0.3494
vn -0.5602 -0.6205 -0.5487
vn -0.5603 -0.6204 -0.5488
vn -0.5618 -0.6203 -0.5473
vn -0.3612 -0.6225 -0.6943
vn -0.3628 -0.6224 -0.6936
vn -0.1248 -0.6238 -0.7716
vn -0.1254 -0.6237 -0.7715
vn 0.1248 -0.6238 -0.7716
vn 0.1254 -0.6238 -0.7714
vn 0.3612 -0.6225 -0.6943
vn 0.3627 -0.6226 -0.6934
vn 0.5603 -0.6204 -0.5488
vn 0.5602 -0.6205 -0.5487
vn 0.5617 -0.6206 -0.5472
vn 0.7031 -0.6184 -0.3509
vn 0.7031 -0.6185 -0.3509
vn 0.7038 -0.6186 -0.3494
vn 0.7775 -0.6172 -0.1206
vn 0.7775 -0.6173 -0.1206
vn 0.7775 -0.6173 -0.1200
vn 0.7775 -0.6173 0.1206
vn 0.7775 -0.6172 0.1206
vn 0.7776 -0.6172 0.1200
vn 0.7031 -0.6185 0.3509
vn 0.7031 -0.6184 0.3509
vn 0.7039 -0.6184 0.3494
vn 0.5602 -0.6205 0.5487
vn 0.5603 -0.6204 0.5488
vn 0.5618 -0.6203 0.5473
vn 0.3612 -0.6225 0.6943
vn 0.3628 -0.6224 0.6936
vn 0.1248 -0.6238 0.7716
vn 0.1254 -0.6237 0.7715
vt 0.975000 0.750000
vt 0.975000 1.000000
vt 0.950000 1.000000
vt 0.950000 0.750000
vt 0.925000 0.750000
vt 0.925000 1.000000
vt 0.900000 1.000000
vt 0.900000 0.750000
vt 0.875000 0.750000
vt 0.875000 1.000000
vt 0.850000 1.000000
vt 0.850000 0.750000
vt 0.825000 0.750000
vt 0.825000 1.000000
vt 0.800000 1.000000
vt 0.800000 0.750000
vt 0.775000 0.750000
vt 0.775000 1.000000
vt 0.750000 1.000000
vt 0.750000 0.750000
vt 0.725000 0.750000
vt 0.725000 1.000000
vt 0.700000 1.000000
vt 0.700000 0.750000
vt 0.675000 0.750000
vt 0.675000 1.000000
vt 0.650000 1.000000
vt 0.650000 0.750000
vt 0.625000 0.750000
vt 0.625000 1.000000
vt 0.600000 1.000000
vt 0.600000 0.750000
vt 0.575000 0.750000
vt 0.575000 1.000000
vt 0.550000 1.000000
vt 0.550000 0.750000
vt 0.525000 0.750000
vt 0.525000 1.000000
vt 0.500000 1.000000
vt 0.500000 0.750000
vt 0.475000 0.750000
vt 0.475000 1.000000
vt 0.450000 1.000000
vt 0.450000 0.750000
vt 0.425000 0.750000
vt 0.425000 1.000000
vt 0.400000 1.000000
vt 0.400000 0.750000
vt 0.375000 0.750000
vt 0.375000 1.000000
vt 0.350000 1.000000
vt 0.350000 0.750000
vt 0.325000 0.750000
vt 0.325000 1.000000
vt 0.300000 1.000000
vt 0.300000 0.750000
vt 0.275000 0.750000
vt 0.275000 1.000000
vt 0.250000 1.000000
vt 0.250000 0.750000
vt 0.225000 0.750000
vt 0.225000 1.000000
vt 0.200000 1.000000
vt 0.200000 0.750000
vt 0.175000 0.750000
vt 0.175000 1.000000
vt 0.150000 1.000000
vt 0.150000 0.750000
vt 0.125000 0.750000
vt 0.125000 1.000000
vt 0.100000 1.000000
vt 0.100000 0.750000
vt 0.324164 0.478254
vt 0.287082 0.484127
vt 0.250000 0.490000
vt 0.212918 0.484127
vt 0.175836 0.478254
vt 0.142384 0.461209
vt 0.108932 0.444164
vt 0.082384 0.417616
vt 0.055836 0.391068
vt 0.038791 0.357616
vt 0.021746 0.324164
vt 0.015873 0.287082
vt 0.010000 0.250000
vt 0.015873 0.212918
vt 0.021746 0.175836
vt 0.038791 0.142384
vt 0.055836 0.108932
vt 0.082384 0.082384
vt 0.108932 0.055836
vt 0.142384 0.038791
vt 0.175836 0.021746
vt 0.212918 0.015873
vt 0.250000 0.010000
vt 0.287082 0.015873
vt 0.324164 0.021746
vt 0.357616 0.038791
vt 0.391068 0.055836
vt 0.417616 0.082384
vt 0.444164 0.108932
vt 0.461209 0.142384
vt 0.478254 0.175836
vt 0.484127 0.212918
vt 0.490000 0.250000
vt 0.484127 0.287082
vt 0.478254 0.324164
vt 0.461209 0.357616
vt 0.444164 0.391068
vt 0.417616 0.417616
vt 0.391068 0.444164
vt 0.357616 0.461209
vt 0.075000 0.750000
vt 0.075000 1.000000
vt 0.050000 1.000000
vt 0.050000 0.750000
vt 0.025000 0.750000
vt 0.025000 1.000000
vt -0.000000 1.000000
vt 0.000000 0.750000
vt 0.750000 0.490000
vt 0.787082 0.484127
vt 0.824164 0.478254
vt 0.857616 0.461209
vt 0.891068 0.444164
vt 0.917616 0.417616
vt 0.944164 0.391068
vt 0.961209 0.357616
vt 0.978254 0.324164
vt 0.984127 0.287082
vt 0.990000 0.250000
vt 0.984127 0.212918
vt 0.978254 0.175836
vt 0.961209 0.142384
vt 0.944164 0.108932
vt 0.917616 0.082384
vt 0.891068 0.055836
vt 0.857616 0.038791
vt 0.824164 0.021746
vt 0.787082 0.015873
vt 0.750000 0.010000
vt 0.712918 0.015873
vt 0.675836 0.021746
vt 0.642384 0.038791
vt 0.608932 0.055836
vt 0.582384 0.082384
vt 0.555836 0.108932
vt 0.538791 0.142384
vt 0.521746 0.175836
vt 0.515873 0.212918
vt 0.510000 0.250000
vt 0.515873 0.287082
vt 0.521746 0.324164
vt 0.538791 0.357616
vt 0.555836 0.391068
vt 0.582384 0.417616
vt 0.608932 0.444164
vt 0.642384 0.461209
vt 0.675836 0.478254
vt 0.712918 0.484127
vt 0.025000 0.500000
vt -0.000000 0.500000
vt 0.050000 0.500000
vt 0.075000 0.500000
vt 0.100000 0.500000
vt 0.125000 0.500000
vt 0.150000 0.500000
vt 0.175000 0.500000
vt 0.200000 0.500000
vt 0.225000 0.500000
vt 0.250000 0.500000
vt 0.275000 0.500000
vt 0.300000 0.500000
vt 0.325000 0.500000
vt 0.350000 0.500000
vt 0.375000 0.500000
vt 0.400000 0.500000
vt 0.425000 0.500000
vt 0.450000 0.500000
vt 0.475000 0.500000
vt 0.500000 0.500000
vt 0.525000 0.500000
vt 0.550000 0.500000
vt 0.575000 0.500000
vt 0.600000 0.500000
vt 0.625000 0.500000
vt 0.650000 0.500000
vt 0.675000 0.500000
vt 0.700000 0.500000
vt 0.725000 0.500000
vt 0.750000 0.500000
vt 0.775000 0.500000
vt 0.800000 0.500000
vt 0.825000 0.500000
vt 0.850000 0.500000
vt 0.875000 0.500000
vt 0.900000 0.500000
vt 0.925000 0.500000
vt 0.950000 0.500000
vt 0.975000 0.500000
vt 1.000000 0.500000
vt 1.000000 0.750000
vt 1.000000 1.000000
s 0
f 120/1/1 43/2/1 4/3/1 44/4/1
f 119/5/2 46/6/2 6/7/2 47/8/2
f 118/9/3 49/10/3 8/11/3 50/12/3
f 117/13/4 52/14/4 10/15/4 53/16/4
f 116/17/5 55/18/5 12/19/5 56/20/5
f 115/21/6 58/22/6 14/23/6 59/24/6
f 114/25/7 61/26/7 16/27/7 62/28/7
f 113/29/8 64/30/8 18/31/8 65/32/8
f 112/33/9 67/34/9 20/35/9 68/36/9
f 111/37/10 70/38/10 22/39/10 71/40/10
f 110/41/11 73/42/11 24/43/11 74/44/11
f 109/45/12 76/46/12 26/47/12 77/48/12
f 108/49/13 79/50/13 28/51/13 80/52/13
f 107/53/14 82/54/14 30/55/14 83/56/14
f 106/57/15 85/58/15 32/59/15 86/60/15
f 105/61/16 88/62/16 34/63/16 89/64/16
f 104/65/17 91/66/17 36/67/17 92/68/17
f 103/69/18 94/70/18 38/71/18 95/72/18
f 4/73/19 43/74/19 2/75/19 96/76/19 40/77/19 97/78/19 38/79/19 94/80/19 36/81/19 91/82/19 34/83/19 88/84/19 32/85/19 85/86/19 30/87/19 82/88/19 28/89/19 79/90/19 26/91/19 76/92/19 24/93/19 73/94/19 22/95/19 70/96/19 20/97/19 67/98/19 18/99/19 64/100/19 16/101/19 61/102/19 14/103/19 58/104/19 12/105/19 55/106/19 10/107/19 52/108/19 8/109/19 49/110/19 6/111/19 46/112/19
f 102/113/20 97/114/20 40/115/20 99/116/20
f 101/117/21 96/118/21 2/119/21 42/120/21
f 1/121/22 41/122/22 3/123/22 45/124/22 5/125/22 48/126/22 7/127/22 51/128/22 9/129/22 54/130/22 11/131/22 57/132/22 13/133/22 60/134/22 15/135/22 63/136/22 17/137/22 66/138/22 19/139/22 69/140/22 21/141/22 72/142/22 23/143/22 75/144/22 25/145/22 78/146/22 27/147/22 81/148/22 29/149/22 84/150/22 31/151/22 87/152/22 33/153/22 90/154/22 35/155/22 93/156/22 37/157/22 98/158/22 39/159/22 100/160/22
f 100/161/23 101/117/23 42/120/23 1/162/23
f 39/163/23 99/116/23 101/117/23 100/161/23
f 99/116/24 40/115/24 96/118/24 101/117/24
f 98/164/25 102/113/25 99/116/25 39/163/25
f 37/165/25 95/72/25 102/113/25 98/164/25
f 95/72/26 38/71/26 97/114/26 102/113/26
f 93/166/27 103/69/27 95/72/27 37/165/27
f 35/167/28 92/68/28 103/69/28 93/166/28
f 92/68/29 36/67/29 94/70/29 103/69/29
f 90/168/30 104/65/30 92/68/30 35/167/30
f 33/169/31 89/64/31 104/65/31 90/168/31
f 89/64/32 34/63/32 91/66/32 104/65/32
f 87/170/33 105/61/33 89/64/33 33/169/33
f 31/171/34 86/60/34 105/61/34 87/170/34
f 86/60/35 32/59/35 88/62/35 105/61/35
f 84/172/36 106/57/36 86/60/36 31/171/36
f 29/173/37 83/56/37 106/57/37 84/172/37
f 83/56/38 30/55/38 85/58/38 106/57/38
f 81/174/39 107/53/39 83/56/39 29/173/39
f 27/175/40 80/52/40 107/53/40 81/174/40
f 80/52/41 28/51/41 82/54/41 107/53/41
f 78/176/42 108/49/42 80/52/42 27/175/42
f 25/177/43 77/48/43 108/49/43 78/176/43
f 77/48/44 26/47/44 79/50/44 108/49/44
f 75/178/45 109/45/45 77/48/45 25/177/45
f 23/179/45 74/44/45 109/45/45 75/178/45
f 74/44/46 24/43/46 76/46/46 109/45/46
f 72/180/47 110/41/47 74/44/47 23/179/47
f 21/181/47 71/40/47 110/41/47 72/180/47
f 71/40/48 22/39/48 73/42/48 110/41/48
f 69/182/49 111/37/49 71/40/49 21/181/49
f 19/183/49 68/36/49 111/37/49 69/182/49
f 68/36/50 20/35/50 70/38/50 111/37/50
f 66/184/51 112/33/51 68/36/51 19/183/51
f 17/185/51 65/32/51 112/33/51 66/184/51
f 65/32/52 18/31/52 67/34/52 112/33/52
f 63/186/53 113/29/53 65/32/53 17/185/53
f 15/187/54 62/28/54 113/29/54 63/186/54
f 62/28/55 16/27/55 64/30/55 113/29/55
f 60/188/56 114/25/56 62/28/56 15/187/56
f 13/189/57 59/24/57 114/25/57 60/188/57
f 59/24/58 14/23/58 61/26/58 114/25/58
f 57/190/59 115/21/59 59/24/59 13/189/59
f 11/191/60 56/20/60 115/21/60 57/190/60
f 56/20/61 12/19/61 58/22/61 115/21/61
f 54/192/62 116/17/62 56/20/62 11/191/62
f 9/193/63 53/16/63 116/17/63 54/192/63
f 53/16/64 10/15/64 55/18/64 116/17/64
f 51/194/65 117/13/65 53/16/65 9/193/65
f 7/195/66 50/12/66 117/13/66 51/194/66
f 50/12/67 8/11/67 52/14/67 117/13/67
f 48/196/68 118/9/68 50/12/68 7/195/68
f 5/197/69 47/8/69 118/9/69 48/196/69
f 47/8/70 6/7/70 49/10/70 118/9/70
f 45/198/71 119/5/71 47/8/71 5/197/71
f 3/199/71 44/4/71 119/5/71 45/198/71
f 44/4/72 4/3/72 46/6/72 119/5/72
f 41/200/73 120/1/73 44/4/73 3/199/73
f 1/201/73 42/202/73 120/1/73 41/200/73
f 42/202/74 2/203/74 43/2/74 120/1/74
